<?xml version="1.0" encoding="UTF-8" standalone="no"?>
<!DOCTYPE svg PUBLIC "-//W3C//DTD SVG 1.1//EN" "http://www.w3.org/Graphics/SVG/1.1/DTD/svg11.dtd">
<svg width="100%" height="100%" viewBox="0 0 56 56" version="1.1" xmlns="http://www.w3.org/2000/svg" xmlns:xlink="http://www.w3.org/1999/xlink" xml:space="preserve" xmlns:serif="http://www.serif.com/" style="fill-rule:evenodd;clip-rule:evenodd;stroke-linejoin:round;stroke-miterlimit:2;">
    <g>
        <path d="M36.985,0L7.963,0C7.155,0 6.5,0.655 6.5,1.926L6.5,55C6.5,55.345 7.155,56 7.963,56L48.037,56C48.845,56 49.5,55.345 49.5,55L49.5,12.978C49.5,12.282 49.407,12.058 49.243,11.893L37.607,0.257C37.442,0.093 37.218,0 36.985,0Z" style="fill:rgb(233,233,224);fill-rule:nonzero;"/>
        <path d="M37.5,0.151L37.5,12L49.349,12L37.5,0.151Z" style="fill:rgb(217,215,202);fill-rule:nonzero;"/>
        <g transform="matrix(2.44125,0,0,2.59308,11.5288,44.1297)">
            <text x="0px" y="0px" style="font-family:'ArialMT', 'Arial', sans-serif;font-size:9.336px;fill:rgb(200,189,184);">&lt;/&gt;</text>
        </g>
        <g transform="matrix(1.04306,0,0,1.01149,-1.26759,2.60369)">
            <rect x="3.759" y="1.929" width="31.026" height="12.266" style="fill:rgb(161,209,255);"/>
        </g>
        <g transform="matrix(1.01149,0,0,1.01149,-0.169466,-0.0523177)">
            <path d="M2.791,16.821L6.5,16.821L6.5,21.858L2.791,16.821Z" style="fill:rgb(108,182,255);"/>
        </g>
        <g transform="matrix(1.08068,0,0,1.08068,4.93197,14.3694)">
            <text x="0px" y="0px" style="font-family:'ArialMT', 'Arial', sans-serif;font-size:9.336px;fill:white;">HTML</text>
        </g>
    </g>
</svg>
