<?xml version="1.0" encoding="UTF-8" standalone="no"?>
<!DOCTYPE svg PUBLIC "-//W3C//DTD SVG 1.1//EN" "http://www.w3.org/Graphics/SVG/1.1/DTD/svg11.dtd">
<svg width="100%" height="100%" viewBox="0 0 56 56" version="1.1" xmlns="http://www.w3.org/2000/svg" xmlns:xlink="http://www.w3.org/1999/xlink" xml:space="preserve" xmlns:serif="http://www.serif.com/" style="fill-rule:evenodd;clip-rule:evenodd;stroke-linecap:round;stroke-linejoin:round;stroke-miterlimit:1.5;">
    <g>
        <path d="M36.985,0L7.963,0C7.155,0 6.5,0.655 6.5,1.926L6.5,55C6.5,55.345 7.155,56 7.963,56L48.037,56C48.845,56 49.5,55.345 49.5,55L49.5,12.978C49.5,12.282 49.407,12.058 49.243,11.893L37.607,0.257C37.442,0.093 37.218,0 36.985,0Z" style="fill:rgb(233,233,224);fill-rule:nonzero;"/>
        <path d="M37.5,0.151L37.5,12L49.349,12L37.5,0.151Z" style="fill:rgb(217,215,202);fill-rule:nonzero;"/>
        <g transform="matrix(0.778537,0,0,0.754975,0.918418,3.09851)">
            <rect x="3.759" y="1.929" width="31.026" height="12.266" style="fill:rgb(190,123,192);"/>
        </g>
        <g transform="matrix(0.754975,0,0,0.754975,1.73805,1.11608)">
            <path d="M2.791,16.821L6.5,16.821L6.5,21.858L2.791,16.821Z" style="fill:rgb(144,75,145);"/>
        </g>
        <g transform="matrix(0.806612,0,0,0.806612,0.973383,-7.90418)">
            <text x="8.376px" y="24.528px" style="font-family:'ArialMT', 'Arial', sans-serif;font-size:9.336px;fill:white;">PNG</text>
        </g>
        <g transform="matrix(0.471414,0,0,0.471414,13.1004,13.1983)">
            <rect x="15.706" y="29.071" width="4.848" height="4.764" style="fill:rgb(200,189,184);stroke:rgb(200,189,184);stroke-width:1.27px;"/>
        </g>
        <g transform="matrix(0.471414,0,0,0.471414,18.2937,13.1983)">
            <rect x="15.706" y="29.071" width="4.848" height="4.764" style="fill:rgb(200,189,184);stroke:rgb(200,189,184);stroke-width:1.27px;"/>
        </g>
        <g transform="matrix(0.471414,0,0,0.471414,23.5147,13.1983)">
            <rect x="15.706" y="29.071" width="4.848" height="4.764" style="fill:rgb(200,189,184);stroke:rgb(200,189,184);stroke-width:1.27px;"/>
        </g>
        <g transform="matrix(0.471414,0,0,0.471414,10.5216,15.7564)">
            <rect x="15.706" y="29.071" width="4.848" height="4.764" style="fill:rgb(200,189,184);stroke:rgb(200,189,184);stroke-width:1.27px;"/>
        </g>
        <g transform="matrix(0.471414,0,0,0.471414,13.1004,18.3108)">
            <rect x="15.706" y="29.071" width="4.848" height="4.764" style="fill:rgb(200,189,184);stroke:rgb(200,189,184);stroke-width:1.27px;"/>
        </g>
        <g transform="matrix(0.471414,0,0,0.471414,15.7149,15.7564)">
            <rect x="15.706" y="29.071" width="4.848" height="4.764" style="fill:rgb(200,189,184);stroke:rgb(200,189,184);stroke-width:1.27px;"/>
        </g>
        <g transform="matrix(0.471414,0,0,0.471414,18.2937,18.3108)">
            <rect x="15.706" y="29.071" width="4.848" height="4.764" style="fill:rgb(200,189,184);stroke:rgb(200,189,184);stroke-width:1.27px;"/>
        </g>
        <g transform="matrix(0.471414,0,0,0.471414,20.9359,15.7564)">
            <rect x="15.706" y="29.071" width="4.848" height="4.764" style="fill:rgb(200,189,184);stroke:rgb(200,189,184);stroke-width:1.27px;"/>
        </g>
        <g transform="matrix(0.471414,0,0,0.471414,23.5147,18.3108)">
            <rect x="15.706" y="29.071" width="4.848" height="4.764" style="fill:rgb(200,189,184);stroke:rgb(200,189,184);stroke-width:1.27px;"/>
        </g>
        <g transform="matrix(0.471414,0,0,0.471414,26.1292,15.7564)">
            <rect x="15.706" y="29.071" width="4.848" height="4.764" style="fill:rgb(200,189,184);stroke:rgb(200,189,184);stroke-width:1.27px;"/>
        </g>
        <g transform="matrix(0.471414,0,0,0.471414,10.5216,20.8724)">
            <rect x="15.706" y="29.071" width="4.848" height="4.764" style="fill:rgb(200,189,184);stroke:rgb(200,189,184);stroke-width:1.27px;"/>
        </g>
        <g transform="matrix(0.471414,0,0,0.471414,13.1004,23.4268)">
            <rect x="15.706" y="29.071" width="4.848" height="4.764" style="fill:rgb(200,189,184);stroke:rgb(200,189,184);stroke-width:1.27px;"/>
        </g>
        <g transform="matrix(0.471414,0,0,0.471414,15.7149,20.8724)">
            <rect x="15.706" y="29.071" width="4.848" height="4.764" style="fill:rgb(200,189,184);stroke:rgb(200,189,184);stroke-width:1.27px;"/>
        </g>
        <g transform="matrix(0.471414,0,0,0.471414,18.2937,23.4268)">
            <rect x="15.706" y="29.071" width="4.848" height="4.764" style="fill:rgb(200,189,184);stroke:rgb(200,189,184);stroke-width:1.27px;"/>
        </g>
        <g transform="matrix(0.471414,0,0,0.471414,20.9359,20.8724)">
            <rect x="15.706" y="29.071" width="4.848" height="4.764" style="fill:rgb(200,189,184);stroke:rgb(200,189,184);stroke-width:1.27px;"/>
        </g>
        <g transform="matrix(0.471414,0,0,0.471414,23.5147,23.4268)">
            <rect x="15.706" y="29.071" width="4.848" height="4.764" style="fill:rgb(200,189,184);stroke:rgb(200,189,184);stroke-width:1.27px;"/>
        </g>
        <g transform="matrix(0.471414,0,0,0.471414,26.1292,20.8724)">
            <rect x="15.706" y="29.071" width="4.848" height="4.764" style="fill:rgb(200,189,184);stroke:rgb(200,189,184);stroke-width:1.27px;"/>
        </g>
        <g transform="matrix(0.471414,0,0,0.471414,10.5216,25.9849)">
            <rect x="15.706" y="29.071" width="4.848" height="4.764" style="fill:rgb(200,189,184);stroke:rgb(200,189,184);stroke-width:1.27px;"/>
        </g>
        <g transform="matrix(0.471414,0,0,0.471414,13.1004,28.5393)">
            <rect x="15.706" y="29.071" width="4.848" height="4.764" style="fill:rgb(200,189,184);stroke:rgb(200,189,184);stroke-width:1.27px;"/>
        </g>
        <g transform="matrix(0.471414,0,0,0.471414,15.7149,25.9849)">
            <rect x="15.706" y="29.071" width="4.848" height="4.764" style="fill:rgb(200,189,184);stroke:rgb(200,189,184);stroke-width:1.27px;"/>
        </g>
        <g transform="matrix(0.471414,0,0,0.471414,18.2937,28.5393)">
            <rect x="15.706" y="29.071" width="4.848" height="4.764" style="fill:rgb(200,189,184);stroke:rgb(200,189,184);stroke-width:1.27px;"/>
        </g>
        <g transform="matrix(0.471414,0,0,0.471414,20.9359,25.9849)">
            <rect x="15.706" y="29.071" width="4.848" height="4.764" style="fill:rgb(200,189,184);stroke:rgb(200,189,184);stroke-width:1.27px;"/>
        </g>
        <g transform="matrix(0.471414,0,0,0.471414,23.5147,28.5393)">
            <rect x="15.706" y="29.071" width="4.848" height="4.764" style="fill:rgb(200,189,184);stroke:rgb(200,189,184);stroke-width:1.27px;"/>
        </g>
        <g transform="matrix(0.471414,0,0,0.471414,26.1292,25.9849)">
            <rect x="15.706" y="29.071" width="4.848" height="4.764" style="fill:rgb(200,189,184);stroke:rgb(200,189,184);stroke-width:1.27px;"/>
        </g>
    </g>
</svg>
